<!-- Generator: Adobe Illustrator 23.0.3, SVG Export Plug-In  -->
<svg version="1.1" xmlns="http://www.w3.org/2000/svg" xmlns:xlink="http://www.w3.org/1999/xlink" x="0px" y="0px"
	 width="2549.6px" height="684.6px" viewBox="0 0 2549.6 684.6" style="enable-background:new 0 0 2549.6 684.6;"
	 xml:space="preserve" fill = "White">
<style type="text/css">
	.st0{display:none;}
</style>
<defs>
</defs>
<g>
	<path class="st0" d="M367.2,471.5c-36.3,18.8-81.6,28.3-135.6,28.3c-70,0-126.1-22.1-168.3-66.3C21.1,389.3,0,331.3,0,259.5
		C0,182.3,23.7,120,71.2,72.4C118.6,24.8,178.6,1.1,251.1,1.1c46.7,0,85.4,6.6,116.1,19.9v79.4C334.6,81,298.7,71.4,259.5,71.4
		c-52.3,0-94.6,16.7-127,50.1C100,155,83.8,199.6,83.8,255.5c0,53.2,15.1,95.5,45.4,127c30.3,31.5,70.1,47.3,119.5,47.3
		c45.5,0,85-10.8,118.5-32.3V471.5z"/>
	<path d="M602.7,499.8c-53.2,0-95.6-16.1-127.4-48.3c-31.7-32.2-47.6-74.9-47.6-128.1c0-57.9,16.5-103.1,49.6-135.6
		c33.1-32.5,77.7-48.8,133.8-48.8c53.8,0,95.8,15.8,125.9,47.5c30.1,31.6,45.1,75.5,45.1,131.6c0,55-16.2,99-48.6,132.1
		C701.1,483.3,657.5,499.8,602.7,499.8z M606.4,201.3c-30.5,0-54.6,10.7-72.4,32c-17.7,21.3-26.6,50.7-26.6,88.2
		c0,36.1,9,64.6,26.9,85.3c17.9,20.8,42,31.1,72,31.1c30.7,0,54.4-10.2,70.8-30.6c16.5-20.4,24.7-49.5,24.7-87.2
		c0-37.9-8.2-67.2-24.7-87.8C660.8,211.6,637.2,201.3,606.4,201.3z"/>
	<path d="M1168.5,491.7h-78.1V297.5c0-64.4-22.8-96.6-68.3-96.6c-23.8,0-43.4,8.9-58.9,26.8C947.7,245.5,940,268,940,295.2v196.5
		h-78.4V147.1H940v57.2h1.3c25.8-43.5,63-65.3,111.7-65.3c37.5,0,66.1,12.2,85.8,36.5c19.7,24.3,29.6,59.5,29.6,105.5V491.7z"/>
	<path d="M1445.4,488c-15.3,7.6-35.3,11.4-60.2,11.4c-66.9,0-100.3-32.1-100.3-96.3V208.4h-57.6v-61.3h57.6V67.3l78.1-22.2v102h82.4
		v61.3H1363v172.3c0,20.4,3.7,35,11.1,43.8c7.4,8.8,19.7,13.1,37,13.1c13.2,0,24.7-3.8,34.3-11.4V488z"/>
	<path d="M1661.5,499.8c-53.2,0-95.6-16.1-127.4-48.3c-31.7-32.2-47.6-74.9-47.6-128.1c0-57.9,16.5-103.1,49.6-135.6
		c33.1-32.5,77.7-48.8,133.8-48.8c53.8,0,95.8,15.8,125.9,47.5c30.1,31.6,45.1,75.5,45.1,131.6c0,55-16.2,99-48.6,132.1
		C1759.8,483.3,1716.2,499.8,1661.5,499.8z M1665.2,201.3c-30.5,0-54.6,10.7-72.4,32c-17.7,21.3-26.6,50.7-26.6,88.2
		c0,36.1,9,64.6,26.9,85.3c17.9,20.8,42,31.1,72,31.1c30.7,0,54.4-10.2,70.8-30.6c16.5-20.4,24.7-49.5,24.7-87.2
		c0-37.9-8.2-67.2-24.7-87.8C1719.6,211.6,1695.9,201.3,1665.2,201.3z"/>
	<path d="M1898.8,481v-72.4c29.2,22.2,61.4,33.3,96.6,33.3c47.1,0,70.7-13.9,70.7-41.7c0-7.8-2-14.5-6.1-20
		c-4-5.5-9.5-10.4-16.3-14.6c-6.8-4.3-14.9-8.1-24.2-11.4c-9.3-3.4-19.7-7.2-31.1-11.4c-14.1-5.6-26.9-11.6-38.2-17.8
		c-11.3-6.3-20.8-13.4-28.3-21.4c-7.5-8-13.2-17-17-27.1c-3.8-10.1-5.7-21.9-5.7-35.3c0-16.6,3.9-31.2,11.8-43.9
		c7.9-12.7,18.4-23.3,31.6-32c13.2-8.6,28.3-15.1,45.1-19.5c16.8-4.4,34.2-6.6,52.2-6.6c31.9,0,60.4,4.8,85.5,14.5v68.3
		c-24.2-16.6-52.1-24.9-83.5-24.9c-9.9,0-18.8,1-26.8,3c-8,2-14.8,4.8-20.4,8.4c-5.6,3.6-10,7.9-13.1,13c-3.1,5-4.7,10.6-4.7,16.7
		c0,7.4,1.6,13.7,4.7,18.8c3.1,5.2,7.8,9.7,14,13.6c6.2,3.9,13.6,7.5,22.2,10.8c8.6,3.3,18.6,6.8,29.8,10.6
		c14.8,6.1,28.1,12.2,39.9,18.5c11.8,6.3,21.8,13.4,30.1,21.4c8.3,8,14.7,17.2,19.2,27.6c4.5,10.4,6.7,22.8,6.7,37.2
		c0,17.5-4,32.8-12.1,45.8c-8.1,13-18.8,23.8-32.3,32.3c-13.5,8.5-29,14.9-46.6,19c-17.6,4.2-36.2,6.2-55.7,6.2
		C1959,499.8,1926.4,493.5,1898.8,481z"/>
	<path d="M2370.3,499.8c-53.2,0-95.6-16.1-127.4-48.3c-31.7-32.2-47.6-74.9-47.6-128.1c0-57.9,16.5-103.1,49.6-135.6
		c33.1-32.5,77.7-48.8,133.8-48.8c53.8,0,95.8,15.8,125.9,47.5c30.1,31.6,45.1,75.5,45.1,131.6c0,55-16.2,99-48.6,132.1
		C2468.6,483.3,2425,499.8,2370.3,499.8z M2374,201.3c-30.5,0-54.6,10.7-72.4,32c-17.7,21.3-26.6,50.7-26.6,88.2
		c0,36.1,9,64.6,26.9,85.3c17.9,20.8,41.9,31.1,72,31.1c30.7,0,54.4-10.2,70.8-30.6c16.5-20.4,24.7-49.5,24.7-87.2
		c0-37.9-8.2-67.2-24.7-87.8C2428.3,211.6,2404.7,201.3,2374,201.3z"/>
</g>
<g>
	<path d="M2009.2,682.5h-20.9v-54.3h-58.9v54.3h-20.8V557.3h20.8v52.6h58.9v-52.6h20.9V682.5z"/>
	<path d="M2113.5,643.3h-60.9c0.2,8.3,2.8,14.6,7.6,19.1c4.9,4.5,11.5,6.7,20,6.7c9.5,0,18.3-2.9,26.3-8.6v16.3
		c-8.1,5.1-18.9,7.7-32.3,7.7c-13.2,0-23.5-4.1-30.9-12.2c-7.5-8.1-11.2-19.5-11.2-34.3c0-13.9,4.1-25.2,12.4-34
		c8.2-8.8,18.5-13.1,30.7-13.1s21.7,3.9,28.4,11.8c6.7,7.9,10,18.8,10,32.7V643.3z M2093.9,628.9c-0.1-7.3-1.8-12.9-5.2-17
		c-3.4-4-8-6.1-14-6.1c-5.8,0-10.8,2.1-14.8,6.4c-4,4.2-6.5,9.8-7.5,16.7H2093.9z"/>
	<path d="M2201.4,682.5h-19.6v-14h-0.3c-6.2,10.7-15.2,16.1-27.2,16.1c-8.8,0-15.7-2.4-20.6-7.2c-5-4.8-7.5-11.1-7.5-18.9
		c0-16.9,9.7-26.7,29.2-29.5l26.5-3.8c0-12.7-6.1-19.1-18.2-19.1c-10.7,0-20.3,3.7-28.8,11v-17.7c9.4-5.6,20.3-8.4,32.7-8.4
		c22.6,0,33.9,11.1,33.9,33.3V682.5z M2181.8,638.6l-18.8,2.6c-5.8,0.8-10.2,2.2-13.1,4.2c-2.9,2.1-4.4,5.7-4.4,10.9
		c0,3.8,1.4,6.9,4.1,9.3c2.7,2.4,6.3,3.6,10.9,3.6c6.2,0,11.3-2.2,15.3-6.5c4-4.3,6.1-9.8,6.1-16.4V638.6z"/>
	<path d="M2246.4,682.5h-20.3V550.1h20.3V682.5z"/>
	<path d="M2320,681.5c-4,2-9.2,3-15.6,3c-17.3,0-26-8.3-26-25V609h-14.9v-15.9h14.9v-20.7l20.3-5.8v26.5h21.4V609h-21.4v44.7
		c0,5.3,1,9.1,2.9,11.3c1.9,2.3,5.1,3.4,9.6,3.4c3.4,0,6.4-1,8.9-3V681.5z"/>
	<path d="M2416.9,682.5h-20.3v-48.9c0-17.7-5.9-26.5-17.7-26.5c-5.9,0-10.9,2.6-15,7.7c-4.1,5.1-6.1,11.7-6.1,19.6v48.1h-20.3V550.1
		h20.3v57.8h0.3c6.8-11.3,16.4-16.9,29-16.9c19.8,0,29.8,12.1,29.8,36.4V682.5z"/>
</g>
<g>
	<g>
		<path d="M258.3,431c-2.4,0.1-7.3,0.4-13.7-0.1c1,21.3,2,46.8,2,57.2c0,1.3,6.8,1.8,7.5-1c3-11.9,3.5-36.1,4.2-54L258.3,431z"/>
	</g>
	<g>
		<path d="M248.2,423.7c18.9,0,53.4-4.9,53.4-46.6c0-20-21.4-32.2-33.2-35.2c-0.2,6.9-0.9,14.2-1.2,20.6c13,3.8,16.2,12.5,16.2,23
			c0,18.2-10.7,25.2-24.7,25.2c1.3-43.1,1.5-68.6,2.7-114.1c-7.2,2.1-13.2,2.8-19.5,5.7c0.4,13.6,0.4,19.5,0.8,29.6
			c-17.1-5.6-31.1-12.5-31.1-23c0-28,115.5-24.8,115.5-82.9c0-24.6-30.1-30.6-53.6-37.7c-0.2,8.2-1.4,21.2-1.7,30.4
			c11.9,1.4,27.9,5.1,27.9,15.7c0,8.7-25.6,19.9-38.1,23.1c1.3-49.9,2.9-92.5,3.6-116.2c-9.1-1.3-19.2-1.5-27.8-0.4
			c0,5.9,0.3,16.7,0.7,35.8c-7-0.7-49.1-4.2-49.1-30.2c0-19.3,77.9-14.3,98.4-10.8c51.6,13.7,82.6,0.3,70.5-14.2
			c-0.9-1.7-29-6.4-37.2-22.7c-3.5-1.4-11-2.4-15-2.3c-6.6,0.3-13.6,3.5-19.4,4.3c-2.3,0.3-10-1.3-20.4-1.2
			c0-21.9,13.7-30.4,13.7-43.5c0-18.6-9-26.4-26-26.4c-33,0-32,17.7-32,28.1c0,20,12.8,11.7,12.8,44.5c-29.2,2.4-82,9.6-82,40.4
			c0,49.9,57.7,63.3,86.7,69.2c0.4,20.2,0.5,26.5,1.2,52.1c-26.6,11.9-55.1,16.8-55.1,45.1c0,25.6,42.4,42.8,58.6,46.9
			c0.6,22,0.9,34.7,1.6,55.6c-5.6,0-17.9,0-42.3-11.8c-1.9,0.3-3.9,4.2-2.8,5.5C206.3,411.5,224.2,423.7,248.2,423.7z"/>
	</g>
	<path d="M376.9,17.9C344.6,6,304.8,0,257.6,0C181.4,0,119.4,24.1,71.6,72.2C23.9,120.3,0,183,0,260.3C0,332.9,21.2,391,63.7,434.6
		c42.5,43.6,100.8,65.4,175,65.4c56.9,0,102.9-8.5,138.2-25.6v-99.5c-22.8,13.3-47,22.4-72.8,27.1c-0.5,1.2-1.1,2.4-1.8,3.5
		c-3.9,7-9.5,12.7-16.7,16.9c-5.7,3.4-12.4,5.7-19.9,7.2c-0.1,2.8-0.2,5.9-0.3,9.2c-0.6,18.6-1.4,39.6-4.1,50.2
		c-1.2,4.7-5.7,7.7-11.7,7.7c-7.3,0-10.6-4.3-10.6-8.5c0-10.2-1-36.1-1.9-57.4c0-0.1,0-0.2,0-0.4c-21.1-3-36.5-13.9-42.3-20.1
		c-2.3-2.5-3-6.2-1.7-9.9c0.7-2.1,2.1-4.5,4.3-6.1c-16.5-6.9-30.9-16.9-43.3-30c-26.3-27.8-39.4-65-39.4-111.8
		c0-41.8,10.2-76.2,30.7-103.1c-0.2-2.2-0.3-4.5-0.3-6.9c0-9.4,3.7-17.6,11.1-24.4c5.7-5.3,13.8-9.9,24-13.5
		c12.2-4.3,27.5-7.4,46.7-9.3c-0.8-10.5-3.4-14-5.9-17.4c-3.1-4.2-6.7-9.1-6.7-20.3l0-0.9c0-6.3,0-16.9,7.9-24.9
		c6.6-6.6,16.9-9.8,31.6-9.8c10.7,0,18.9,2.8,24.6,8.4c5.9,5.8,8.9,14.4,8.9,25.6c0,7.6-3.3,13.7-6.5,19.6c-2.7,5-5.4,10.1-6.6,16.7
		c3,0.2,5.6,0.5,7.7,0.7c1.5,0.2,3.1,0.3,3.7,0.3c1.9-0.3,4.2-0.9,6.6-1.6c4-1.1,8.5-2.4,13.2-2.6c0.4,0,0.9,0,1.3,0
		c4.9,0,12.5,1.1,16.9,2.8c1.7,0.7,3,2,3.9,3.6c1.8,3.6,5.2,6.6,9.1,9.1c14.1,4.6,27.6,10.7,40.3,18.3V17.9z"/>
</g>
</svg>
